{
    "asset": {
        "version": "2.0",
        "generator": "Open Asset Import Library (assimp v5.0.5eb040c7)"
    },
    "accessors": [
        {
            "bufferView": 0,
            "byteOffset": 0,
            "componentType": 5126,
            "count": 21860,
            "type": "VEC3",
            "max": [
                218.86599731445313,
                -22.0,
                24.0
            ],
            "min": [
                205.0,
                -33.0,
                16.957000732421876
            ]
        },
        {
            "bufferView": 1,
            "byteOffset": 0,
            "componentType": 5125,
            "count": 129669,
            "type": "SCALAR",
            "max": [
                21859
            ],
            "min": [
                0
            ]
        },
        {
            "bufferView": 2,
            "byteOffset": 0,
            "componentType": 5126,
            "count": 684,
            "type": "VEC3",
            "max": [
                207.197998046875,
                -8.086999893188477,
                39.76539993286133
            ],
            "min": [
                182.55299377441407,
                -28.591999053955079,
                17.0
            ]
        },
        {
            "bufferView": 3,
            "byteOffset": 0,
            "componentType": 5125,
            "count": 2460,
            "type": "SCALAR",
            "max": [
                683
            ],
            "min": [
                0
            ]
        },
        {
            "bufferView": 4,
            "byteOffset": 0,
            "componentType": 5126,
            "count": 1442,
            "type": "VEC3",
            "max": [
                203.35000610351563,
                -37.5,
                -8.035400390625
            ],
            "min": [
                185.64999389648438,
                -46.17340087890625,
                -30.0
            ]
        },
        {
            "bufferView": 5,
            "byteOffset": 0,
            "componentType": 5125,
            "count": 8046,
            "type": "SCALAR",
            "max": [
                1441
            ],
            "min": [
                0
            ]
        },
        {
            "bufferView": 6,
            "byteOffset": 0,
            "componentType": 5126,
            "count": 21015,
            "type": "VEC3",
            "max": [
                230.0,
                0.0,
                44.0
            ],
            "min": [
                162.0,
                -75.0,
                -9.130000114440918
            ]
        },
        {
            "bufferView": 7,
            "byteOffset": 0,
            "componentType": 5125,
            "count": 90012,
            "type": "SCALAR",
            "max": [
                21014
            ],
            "min": [
                0
            ]
        },
        {
            "bufferView": 8,
            "byteOffset": 0,
            "componentType": 5126,
            "count": 37174,
            "type": "VEC3",
            "max": [
                214.6439971923828,
                -44.72129821777344,
                30.0
            ],
            "min": [
                184.9510040283203,
                -70.48500061035156,
                16.957000732421876
            ]
        },
        {
            "bufferView": 9,
            "byteOffset": 0,
            "componentType": 5125,
            "count": 200331,
            "type": "SCALAR",
            "max": [
                37173
            ],
            "min": [
                0
            ]
        },
        {
            "bufferView": 10,
            "byteOffset": 0,
            "componentType": 5126,
            "count": 5947,
            "type": "VEC3",
            "max": [
                213.55599975585938,
                -7.0,
                35.0
            ],
            "min": [
                177.81500244140626,
                -54.881900787353519,
                16.957000732421876
            ]
        },
        {
            "bufferView": 11,
            "byteOffset": 0,
            "componentType": 5125,
            "count": 30894,
            "type": "SCALAR",
            "max": [
                5946
            ],
            "min": [
                0
            ]
        },
        {
            "bufferView": 12,
            "byteOffset": 0,
            "componentType": 5126,
            "count": 3763,
            "type": "VEC3",
            "max": [
                214.01699829101563,
                -8.08899974822998,
                42.332000732421878
            ],
            "min": [
                203.12899780273438,
                -28.35700035095215,
                16.98550033569336
            ]
        },
        {
            "bufferView": 13,
            "byteOffset": 0,
            "componentType": 5125,
            "count": 14790,
            "type": "SCALAR",
            "max": [
                3762
            ],
            "min": [
                0
            ]
        },
        {
            "bufferView": 14,
            "byteOffset": 0,
            "componentType": 5126,
            "count": 8490,
            "type": "VEC3",
            "max": [
                214.86599731445313,
                -27.0,
                47.904998779296878
            ],
            "min": [
                208.82200622558595,
                -30.0,
                36.361000061035159
            ]
        },
        {
            "bufferView": 15,
            "byteOffset": 0,
            "componentType": 5125,
            "count": 49110,
            "type": "SCALAR",
            "max": [
                8489
            ],
            "min": [
                0
            ]
        }
    ],
    "buffers": [
        {
            "byteLength": 3305748,
            "uri": "result.bin"
        }
    ],
    "bufferViews": [
        {
            "buffer": 0,
            "byteOffset": 0,
            "byteLength": 262320,
            "target": 34962
        },
        {
            "buffer": 0,
            "byteOffset": 262320,
            "byteLength": 518676,
            "target": 34963
        },
        {
            "buffer": 0,
            "byteOffset": 780996,
            "byteLength": 8208,
            "target": 34962
        },
        {
            "buffer": 0,
            "byteOffset": 789204,
            "byteLength": 9840,
            "target": 34963
        },
        {
            "buffer": 0,
            "byteOffset": 799044,
            "byteLength": 17304,
            "target": 34962
        },
        {
            "buffer": 0,
            "byteOffset": 816348,
            "byteLength": 32184,
            "target": 34963
        },
        {
            "buffer": 0,
            "byteOffset": 848532,
            "byteLength": 252180,
            "target": 34962
        },
        {
            "buffer": 0,
            "byteOffset": 1100712,
            "byteLength": 360048,
            "target": 34963
        },
        {
            "buffer": 0,
            "byteOffset": 1460760,
            "byteLength": 446088,
            "target": 34962
        },
        {
            "buffer": 0,
            "byteOffset": 1906848,
            "byteLength": 801324,
            "target": 34963
        },
        {
            "buffer": 0,
            "byteOffset": 2708172,
            "byteLength": 71364,
            "target": 34962
        },
        {
            "buffer": 0,
            "byteOffset": 2779536,
            "byteLength": 123576,
            "target": 34963
        },
        {
            "buffer": 0,
            "byteOffset": 2903112,
            "byteLength": 45156,
            "target": 34962
        },
        {
            "buffer": 0,
            "byteOffset": 2948268,
            "byteLength": 59160,
            "target": 34963
        },
        {
            "buffer": 0,
            "byteOffset": 3007428,
            "byteLength": 101880,
            "target": 34962
        },
        {
            "buffer": 0,
            "byteOffset": 3109308,
            "byteLength": 196440,
            "target": 34963
        }
    ],
    "materials": [
        {
            "name": "DefaultMaterial",
            "pbrMetallicRoughness": {
                "baseColorFactor": [
                    0.6000000238418579,
                    0.6000000238418579,
                    0.6000000238418579,
                    1.0
                ],
                "metallicFactor": 0.0
            }
        },
        {
            "name": "color_1206582",
            "pbrMetallicRoughness": {
                "baseColorFactor": [
                    0.6000000238418579,
                    0.6000000238418579,
                    0.6000000238418579,
                    1.0
                ],
                "metallicFactor": 0.0
            }
        },
        {
            "name": "color_2829873",
            "pbrMetallicRoughness": {
                "baseColorFactor": [
                    0.6000000238418579,
                    0.6000000238418579,
                    0.6000000238418579,
                    1.0
                ],
                "metallicFactor": 0.0
            }
        },
        {
            "name": "color_6306067",
            "pbrMetallicRoughness": {
                "baseColorFactor": [
                    0.6000000238418579,
                    0.6000000238418579,
                    0.6000000238418579,
                    1.0
                ],
                "metallicFactor": 0.0
            }
        },
        {
            "name": "color_11107152",
            "pbrMetallicRoughness": {
                "baseColorFactor": [
                    0.6000000238418579,
                    0.6000000238418579,
                    0.6000000238418579,
                    1.0
                ],
                "metallicFactor": 0.0
            }
        },
        {
            "name": "color_13165757",
            "pbrMetallicRoughness": {
                "baseColorFactor": [
                    0.6000000238418579,
                    0.6000000238418579,
                    0.6000000238418579,
                    1.0
                ],
                "metallicFactor": 0.0
            }
        },
        {
            "name": "color_14860437",
            "pbrMetallicRoughness": {
                "baseColorFactor": [
                    0.6000000238418579,
                    0.6000000238418579,
                    0.6000000238418579,
                    1.0
                ],
                "metallicFactor": 0.0
            }
        },
        {
            "name": "color_16311991",
            "pbrMetallicRoughness": {
                "baseColorFactor": [
                    0.6000000238418579,
                    0.6000000238418579,
                    0.6000000238418579,
                    1.0
                ],
                "metallicFactor": 0.0
            }
        },
        {
            "name": "color_16768282",
            "pbrMetallicRoughness": {
                "baseColorFactor": [
                    0.6000000238418579,
                    0.6000000238418579,
                    0.6000000238418579,
                    1.0
                ],
                "metallicFactor": 0.0
            }
        }
    ],
    "meshes": [
        {
            "name": "group_0_1206582",
            "primitives": [
                {
                    "mode": 4,
                    "material": 1,
                    "indices": 1,
                    "attributes": {
                        "POSITION": 0
                    }
                }
            ]
        },
        {
            "name": "group_0_2829873",
            "primitives": [
                {
                    "mode": 4,
                    "material": 2,
                    "indices": 3,
                    "attributes": {
                        "POSITION": 2
                    }
                }
            ]
        },
        {
            "name": "group_0_6306067",
            "primitives": [
                {
                    "mode": 4,
                    "material": 3,
                    "indices": 5,
                    "attributes": {
                        "POSITION": 4
                    }
                }
            ]
        },
        {
            "name": "group_0_11107152",
            "primitives": [
                {
                    "mode": 4,
                    "material": 4,
                    "indices": 7,
                    "attributes": {
                        "POSITION": 6
                    }
                }
            ]
        },
        {
            "name": "group_0_13165757",
            "primitives": [
                {
                    "mode": 4,
                    "material": 5,
                    "indices": 9,
                    "attributes": {
                        "POSITION": 8
                    }
                }
            ]
        },
        {
            "name": "group_0_14860437",
            "primitives": [
                {
                    "mode": 4,
                    "material": 6,
                    "indices": 11,
                    "attributes": {
                        "POSITION": 10
                    }
                }
            ]
        },
        {
            "name": "group_0_16311991",
            "primitives": [
                {
                    "mode": 4,
                    "material": 7,
                    "indices": 13,
                    "attributes": {
                        "POSITION": 12
                    }
                }
            ]
        },
        {
            "name": "group_0_16768282",
            "primitives": [
                {
                    "mode": 4,
                    "material": 8,
                    "indices": 15,
                    "attributes": {
                        "POSITION": 14
                    }
                }
            ]
        }
    ],
    "nodes": [
        {
            "name": "input.obj",
            "children": [
                1,
                2,
                3,
                4,
                5,
                6,
                7,
                8,
                9
            ]
        },
        {
            "name": "obj_0"
        },
        {
            "name": "group_0_1206582",
            "mesh": 0
        },
        {
            "name": "group_0_2829873",
            "mesh": 1
        },
        {
            "name": "group_0_6306067",
            "mesh": 2
        },
        {
            "name": "group_0_11107152",
            "mesh": 3
        },
        {
            "name": "group_0_13165757",
            "mesh": 4
        },
        {
            "name": "group_0_14860437",
            "mesh": 5
        },
        {
            "name": "group_0_16311991",
            "mesh": 6
        },
        {
            "name": "group_0_16768282",
            "mesh": 7
        }
    ],
    "scenes": [
        {
            "nodes": [
                0
            ]
        }
    ],
    "scene": 0
}