{"accessors" : [{"bufferView" : 0, "byteOffset" : 0, "componentType" : 5125, "count" : 525312, "type" : "SCALAR", "max" : [100962], "min" : [0]}, {"bufferView" : 1, "byteOffset" : 0, "componentType" : 5126, "count" : 100963, "type" : "VEC3", "max" : [230, 0, 47.9049987792969], "min" : [162, -75, -30]}, {"bufferView" : 1, "byteOffset" : 12, "componentType" : 5126, "count" : 100963, "type" : "VEC4", "max" : [1, 0.901960790157318, 0.74117648601532, 1], "min" : [0.0705882385373116, 0.180392161011696, 0.0745098069310188, 1]}], "asset" : {"generator" : "Aspose.3D 20.2.1", "version" : "2.0"}, "buffers" : [{"uri" : "buffer.bin", "byteLength" : 4928220}], "bufferViews" : [{"buffer" : 0, "byteOffset" : 0, "byteLength" : 2101248, "target" : 34963}, {"buffer" : 0, "byteOffset" : 2101252, "byteLength" : 2826964, "byteStride" : 28, "target" : 34962}], "materials" : [{"pbrMetallicRoughness" : {"baseColorFactor" : [1, 1, 1, 1], "metallicFactor" : 0.5, "roughnessFactor" : 0.5}, "emissiveFactor" : [0, 0, 0], "alphaMode" : "OPAQUE", "doubleSided" : false}], "meshes" : [{"primitives" : [{"attributes" : {"POSITION" : 1, "COLOR" : 2}, "indices" : 0, "material" : 0, "mode" : 4}]}], "nodes" : [{"mesh" : 0, "name" : "Mesh_Mesh_head_geo.001_lambert2SG.001"}, {"children" : [0], "matrix" : [1, 0, 0, 0, 0, 2.22044604925031E-16, -1, 0, 0, 1, 2.22044604925031E-16, 0, 0, 0, 0, 1]}], "scene" : 0, "scenes" : [{"nodes" : [1]}]}